<svg width="26" height="24" viewBox="0 0 26 24" fill="none" xmlns="http://www.w3.org/2000/svg">
<g clip-path="url(#clip0)">
<path d="M21.125 0C18.4167 0 16.25 2.18455 16.25 4.86062C16.25 5.84366 16.5208 6.77209 17.1167 7.5913L21.125 13.5442L25.1333 7.64591C25.675 6.82671 26 5.89827 26 4.91523C26 2.18455 23.8333 0 21.125 0ZM24.2667 6.99055L21.125 11.5781L17.9833 6.99055C17.55 6.3898 17.3333 5.62521 17.3333 4.86062C17.3333 2.7853 19.0125 1.09227 21.125 1.09227C23.2375 1.09227 24.9167 2.7853 24.9167 4.86062C24.9167 5.62521 24.7 6.3898 24.2667 6.99055Z" fill="black"/>
<path d="M21.1253 2.18457C19.6087 2.18457 18.417 3.38607 18.417 4.91525C18.417 6.44444 19.6087 7.64594 21.1253 7.64594C22.642 7.64594 23.8337 6.44444 23.8337 4.91525C23.8337 3.38607 22.642 2.18457 21.1253 2.18457ZM21.1253 6.55366C20.2045 6.55366 19.5003 5.84368 19.5003 4.91525C19.5003 3.98682 20.2045 3.27684 21.1253 3.27684C22.0462 3.27684 22.7503 3.98682 22.7503 4.91525C22.7503 5.84368 22.0462 6.55366 21.1253 6.55366Z" fill="black"/>
<path d="M17.7667 19.4971C17.0625 18.8963 16.3583 18.4048 15.5458 18.0225C15.9792 16.548 16.1958 14.9095 16.25 13.1073H18.9583V12.015H16.25C16.1417 8.19207 15.1125 4.91525 13.5958 3.113C14.1375 3.27684 14.625 3.49529 15.1667 3.76836L15.6542 2.78531C14.1375 2.02072 12.5125 1.63843 10.8333 1.63843C8.125 1.63843 5.525 2.67609 3.52083 4.53295C1.3 6.55366 0 9.50279 0 12.5612C0 18.5687 4.875 23.4839 10.8333 23.4839C15.8708 23.4839 20.15 20.0432 21.3417 15.128L20.3125 14.8549C19.8792 16.6572 18.9583 18.241 17.7667 19.4971ZM16.9542 20.2071C15.9792 21.0263 14.8417 21.627 13.5958 21.9547C14.2458 21.1901 14.7875 20.2071 15.2208 19.0602C15.8167 19.3879 16.4125 19.7702 16.9542 20.2071ZM7.475 18.6233C8.55833 18.241 9.69583 18.0225 10.8333 18.0225C11.9708 18.0225 13.1625 18.241 14.1917 18.6233C13.4333 20.917 12.1875 22.3916 10.8333 22.3916C9.47917 22.3916 8.23333 20.917 7.475 18.6233ZM8.07083 21.9547C6.825 21.5724 5.6875 20.9717 4.7125 20.2071C5.25417 19.7702 5.85 19.3879 6.44583 19.0602C6.87917 20.2617 7.42083 21.2447 8.07083 21.9547ZM14.5167 17.5856C13.3792 17.1487 12.1333 16.9303 10.8333 16.9303C9.53333 16.9303 8.2875 17.1487 7.15 17.5856C6.77083 16.2749 6.55417 14.7457 6.5 13.1073H15.1667C15.1125 14.7457 14.8958 16.2749 14.5167 17.5856ZM1.1375 12.015C1.24583 9.61202 2.275 7.37286 3.95417 5.67984C4.60417 6.22597 5.3625 6.7175 6.175 7.09979C5.74167 8.57436 5.525 10.2128 5.47083 12.015H1.1375ZM6.44583 6.06213C5.85 5.73445 5.25417 5.35216 4.7125 4.91525C5.6875 4.09604 6.825 3.49529 8.07083 3.113C7.42083 3.87759 6.87917 4.86063 6.44583 6.06213ZM6.5 12.015C6.55417 10.3766 6.77083 8.84743 7.15 7.5367C8.34167 7.97361 9.5875 8.19207 10.8333 8.19207C12.1333 8.19207 13.325 7.97361 14.5167 7.5367C14.8958 8.84743 15.1125 10.4312 15.1667 12.015H6.5ZM14.1917 6.49904C12.025 7.31825 9.5875 7.31825 7.42083 6.49904C8.2875 4.20527 9.47917 2.7307 10.8333 2.7307C12.1875 2.7307 13.3792 4.20527 14.1917 6.49904ZM1.1375 13.1073H5.47083C5.525 14.9095 5.74167 16.548 6.175 18.0225C5.3625 18.4048 4.65833 18.8963 3.95417 19.4971C2.275 17.8041 1.24583 15.5649 1.1375 13.1073Z" fill="black"/>
</g>
<defs>
<clipPath id="clip0">
<rect width="26" height="23.4839" fill="white"/>
</clipPath>
</defs>
</svg>
