<svg width="22" height="22" viewBox="0 0 22 22" fill="none" xmlns="http://www.w3.org/2000/svg">
<path d="M14.9241 9.82576C14.9882 9.88962 15.039 9.96549 15.0736 10.049C15.1083 10.1325 15.1261 10.2221 15.1261 10.3125C15.1261 10.4029 15.1083 10.4925 15.0736 10.576C15.039 10.6595 14.9882 10.7354 14.9241 10.7993L10.7991 14.9243C10.7353 14.9883 10.6594 15.0391 10.5759 15.0737C10.4924 15.1084 10.4028 15.1262 10.3124 15.1262C10.222 15.1262 10.1324 15.1084 10.0489 15.0737C9.96537 15.0391 9.8895 14.9883 9.82564 14.9243L7.76314 12.8618C7.69922 12.7978 7.64852 12.722 7.61392 12.6384C7.57933 12.5549 7.56152 12.4654 7.56152 12.375C7.56152 12.2846 7.57933 12.1951 7.61392 12.1116C7.64852 12.0281 7.69922 11.9522 7.76314 11.8883C7.89224 11.7592 8.06733 11.6866 8.24989 11.6866C8.34029 11.6866 8.4298 11.7044 8.51332 11.739C8.59684 11.7736 8.67272 11.8243 8.73664 11.8883L10.3124 13.4654L13.9506 9.82576C14.0145 9.76173 14.0904 9.71094 14.1739 9.67628C14.2574 9.64162 14.347 9.62378 14.4374 9.62378C14.5278 9.62378 14.6174 9.64162 14.7009 9.67628C14.7844 9.71094 14.8603 9.76173 14.9241 9.82576Z" fill="black"/>
<path d="M4.8125 0C4.99484 0 5.1697 0.0724328 5.29864 0.201364C5.42757 0.330295 5.5 0.505164 5.5 0.6875V1.375H16.5V0.6875C16.5 0.505164 16.5724 0.330295 16.7014 0.201364C16.8303 0.0724328 17.0052 0 17.1875 0C17.3698 0 17.5447 0.0724328 17.6736 0.201364C17.8026 0.330295 17.875 0.505164 17.875 0.6875V1.375H19.25C19.9793 1.375 20.6788 1.66473 21.1945 2.18046C21.7103 2.69618 22 3.39565 22 4.125V19.25C22 19.9793 21.7103 20.6788 21.1945 21.1945C20.6788 21.7103 19.9793 22 19.25 22H2.75C2.02065 22 1.32118 21.7103 0.805456 21.1945C0.289731 20.6788 0 19.9793 0 19.25V4.125C0 3.39565 0.289731 2.69618 0.805456 2.18046C1.32118 1.66473 2.02065 1.375 2.75 1.375H4.125V0.6875C4.125 0.505164 4.19743 0.330295 4.32636 0.201364C4.4553 0.0724328 4.63016 0 4.8125 0V0ZM1.375 5.5V19.25C1.375 19.6147 1.51987 19.9644 1.77773 20.2223C2.03559 20.4801 2.38533 20.625 2.75 20.625H19.25C19.6147 20.625 19.9644 20.4801 20.2223 20.2223C20.4801 19.9644 20.625 19.6147 20.625 19.25V5.5H1.375Z" fill="black"/>
</svg>
